# xmcd
#
# Track frame offsets:
#	150
#	19969
#	36773
#	51171
#	72964
#	93260
#	107860
#	122120
#	136169
#	155140
#	172373
#	187608
#	209592
#	221400
#
# Disc length: 3117 seconds
#
# Revision: 1
# Processed by: cddbd v1.5.2PL0 Copyright (c) Steve Scherf et al.
# Submitted via: audiograbber 1.83.01
#
DISCID=ce0c2b0e
DTITLE=Blue Mountain - Omnibus
DYEAR=2008
DGENRE=No Depression
TTITLE0=Blue Canoe
TTITLE1=Myrna Lee
TTITLE2=Lakeside
TTITLE3=Soul Sister
TTITLE4=Generic America
TTITLE5=When You're Not Mine
TTITLE6=Wink Of An Eye
TTITLE7=Bloody 98
TTITLE8=Mountain Girl
TTITLE9=Band Called Bud
TTITLE10=Poppa
TTITLE11=Hippy Hotel
TTITLE12=The One That Got A Way
TTITLE13=Sleeping In My Shoes
EXTD=
EXTT0=
EXTT1=
EXTT2=
EXTT3=
EXTT4=
EXTT5=
EXTT6=
EXTT7=
EXTT8=
EXTT9=
EXTT10=
EXTT11=
EXTT12=
EXTT13=
PLAYORDER=
